<svg width="32" height="32" viewBox="0 0 32 32" fill="none" xmlns="http://www.w3.org/2000/svg">
<rect width="32" height="32" rx="4" fill="white" fill-opacity="0.1"/>
<path opacity="0.6" d="M13 16C13 15.8562 13.0511 15.7123 13.1483 15.6145L17.2025 11.1554C17.2894 11.0575 17.4018 11 17.5297 11C17.7955 11 18 11.2302 18 11.5293C18 11.6674 17.9489 11.8055 17.8671 11.9033L14.1452 16L17.8671 20.0967C17.9489 20.1945 18 20.3268 18 20.4707C18 20.7699 17.7955 21 17.5297 21C17.4018 21 17.2894 20.9425 17.1973 20.8446L13.1483 16.3855C13.0511 16.2762 13 16.1496 13 16Z" fill="white" stroke="white"/>
</svg>
