<svg width="32" height="32" viewBox="0 0 32 32" fill="none" xmlns="http://www.w3.org/2000/svg">
<rect width="32" height="32" rx="4" fill="white" fill-opacity="0.1"/>
<path opacity="0.6" d="M19 16C19 16.1438 18.9489 16.2877 18.8517 16.3855L14.7975 20.8446C14.7106 20.9425 14.5982 21 14.4703 21C14.2045 21 14 20.7698 14 20.4707C14 20.3326 14.0511 20.1945 14.1329 20.0967L17.8548 16L14.1329 11.9033C14.0511 11.8055 14 11.6732 14 11.5293C14 11.2301 14.2045 11 14.4703 11C14.5982 11 14.7106 11.0575 14.8027 11.1554L18.8517 15.6145C18.9489 15.7238 19 15.8504 19 16Z" fill="white" stroke="white"/>
</svg>
