<svg width="20" height="20" viewBox="0 0 20 20" fill="none" xmlns="http://www.w3.org/2000/svg">
<path d="M17.6752 13.2408C17.145 14.4945 16.3158 15.5993 15.2601 16.4585C14.2043 17.3177 12.9541 17.9053 11.6189 18.1697C10.2836 18.4342 8.90386 18.3675 7.6003 17.9756C6.29673 17.5836 5.10903 16.8783 4.14102 15.9213C3.17302 14.9643 2.45419 13.7847 2.04737 12.4857C1.64055 11.1867 1.55814 9.80783 1.80734 8.46962C2.05653 7.13141 2.62975 5.87461 3.47688 4.80911C4.324 3.74361 5.41924 2.90185 6.66684 2.35742" stroke="black" stroke-width="1.5" stroke-linecap="round" stroke-linejoin="round"/>
<path d="M18.3333 9.99935C18.3333 8.905 18.1178 7.82137 17.699 6.81032C17.2802 5.79927 16.6664 4.88061 15.8926 4.10679C15.1187 3.33297 14.2001 2.71914 13.189 2.30035C12.178 1.88156 11.0943 1.66602 10 1.66602V9.99935H18.3333Z" stroke="black" stroke-width="1.5" stroke-linecap="round" stroke-linejoin="round"/>
</svg>
